# Blender v2.77 (sub 0) OBJ File: 'Weaponry.blend'
# www.blender.org
o Cube.013_Cube.004
v -0.182718 -0.347355 -0.676914
v -0.182718 -0.347355 -0.839410
v -0.166201 -0.338364 -0.839410
v -0.166201 -0.338364 -0.676914
v -0.166201 -0.338364 -0.083150
v -0.182718 -0.347355 -0.083150
v -0.189733 -0.334469 -0.745012
v -0.260406 -0.204634 -0.839410
v -0.243889 -0.195643 -0.839410
v -0.173216 -0.325478 -0.745012
v -0.212774 -0.292139 -0.106108
v -0.212774 -0.292139 -0.540671
v -0.230953 -0.258742 -0.540671
v -0.252144 -0.219812 -0.556567
v -0.189733 -0.334469 -0.556567
v -0.189733 -0.334469 -0.602889
v -0.189733 -0.334469 -0.652369
v -0.189733 -0.334469 -0.676914
v -0.260406 -0.204634 -0.083150
v -0.252144 -0.219812 -0.593414
v -0.230953 -0.258742 -0.106108
v -0.196257 -0.283148 -0.106108
v -0.214436 -0.249751 -0.106108
v -0.214436 -0.249751 -0.540671
v -0.235627 -0.210821 -0.556567
v -0.235627 -0.210821 -0.593414
v -0.243889 -0.195643 -0.083150
v -0.173216 -0.325478 -0.676914
v -0.173216 -0.325478 -0.652369
v -0.173216 -0.325478 -0.602889
v -0.173216 -0.325478 -0.556567
v -0.196257 -0.283148 -0.540671
v -0.189733 -0.334469 -0.701849
v -0.189733 -0.334469 -0.775542
v -0.252165 -0.219774 -0.818337
v -0.260406 -0.204634 -0.676914
v -0.243889 -0.195643 -0.676914
v -0.235648 -0.210783 -0.818337
v -0.173216 -0.325478 -0.701849
v -0.173216 -0.325478 -0.775542
v -0.189733 -0.334469 -0.683794
v -0.252144 -0.219812 -0.642894
v -0.189733 -0.334469 -0.593414
v -0.189733 -0.334469 -0.642894
v -0.189733 -0.334469 -0.692374
v -0.173216 -0.325478 -0.683794
v -0.173216 -0.325478 -0.692374
v -0.235627 -0.210821 -0.642894
v -0.173216 -0.325478 -0.642894
v -0.235627 -0.210821 -0.652369
v -0.235627 -0.210821 -0.676914
v -0.173216 -0.325478 -0.593414
v -0.189733 -0.334469 -0.736590
v -0.189836 -0.334278 -0.785745
v -0.189836 -0.334278 -0.818337
v -0.252165 -0.219774 -0.785745
v -0.252144 -0.219812 -0.745012
v -0.243557 -0.235586 -0.736590
v -0.252144 -0.219812 -0.736590
v -0.252144 -0.219812 -0.701849
v -0.208139 -0.300654 -0.701849
v -0.228000 -0.264167 -0.692374
v -0.252144 -0.219812 -0.692374
v -0.252144 -0.219812 -0.680856
v -0.191622 -0.291663 -0.701849
v -0.235627 -0.210821 -0.701849
v -0.235627 -0.210821 -0.736590
v -0.227041 -0.226595 -0.736590
v -0.235627 -0.210821 -0.745012
v -0.235627 -0.210821 -0.775542
v -0.235648 -0.210783 -0.785745
v -0.235627 -0.210821 -0.680856
v -0.235627 -0.210821 -0.692374
v -0.211483 -0.255176 -0.692374
v -0.173320 -0.325287 -0.818337
v -0.173216 -0.325478 -0.736590
v -0.173320 -0.325287 -0.785745
v -0.252144 -0.219812 -0.602889
v -0.252144 -0.219812 -0.652369
v -0.198479 -0.318400 -0.692374
v -0.181962 -0.309409 -0.692374
v -0.252144 -0.219812 -0.676914
v -0.235627 -0.210821 -0.602889
v -0.252144 -0.219812 -0.775542
vt 0.6154 0.0032
vt 0.6498 0.2167
vt 0.6154 0.2167
vt 0.6154 0.9968
vt 0.7883 0.0032
vt 0.8227 0.2167
vt 0.7883 0.2167
vt 0.3010 0.9968
vt 0.2743 0.3748
vt 0.3010 0.2167
vt 0.0044 0.9968
vt 0.0360 0.3748
vt 0.1169 0.9666
vt 0.4941 0.9666
vt 0.5750 0.3748
vt 0.6065 0.9968
vt 0.3367 0.3748
vt 0.4247 0.9666
vt 0.3099 0.9968
vt 0.7883 0.2231
vt 0.8227 0.4366
vt 0.7883 0.4366
vt 0.6930 0.2167
vt 0.6587 0.0032
vt 0.6930 0.0032
vt 0.2743 0.2077
vt 0.2743 0.2167
vt 0.9612 0.0596
vt 0.9956 0.1080
vt 0.9612 0.1080
vt 0.8748 0.1811
vt 0.9091 0.3526
vt 0.8748 0.3526
vt 0.0360 0.2614
vt 0.0044 0.2167
vt 0.0360 0.2489
vt 0.7019 0.6128
vt 0.7362 0.6128
vt 0.7362 0.6218
vt 0.3367 0.2167
vt 0.3099 0.2167
vt 0.3367 0.2077
vt 0.5750 0.2614
vt 0.3367 0.2614
vt 0.5750 0.2489
vt 0.5750 0.3140
vt 0.5750 0.3264
vt 0.3367 0.3264
vt 0.6587 0.9968
vt 0.6587 0.2167
vt 0.9612 0.4302
vt 0.9956 0.4703
vt 0.9612 0.4703
vt 0.0044 0.0032
vt 0.3010 0.0032
vt 0.0359 0.0309
vt 0.0360 0.1383
vt 0.0360 0.1839
vt 0.5750 0.1383
vt 0.6065 0.2167
vt 0.5750 0.1839
vt 0.8316 0.5369
vt 0.8659 0.7085
vt 0.8316 0.7085
vt 0.9612 0.1144
vt 0.9956 0.1628
vt 0.9612 0.1628
vt 0.7451 0.5805
vt 0.7794 0.6331
vt 0.7451 0.6331
vt 0.8748 0.3831
vt 0.9091 0.4642
vt 0.8748 0.4642
vt 0.8316 0.3590
vt 0.8659 0.5305
vt 0.8316 0.5305
vt 0.9180 0.0032
vt 0.9523 0.1747
vt 0.9180 0.1747
vt 0.7019 0.6546
vt 0.7362 0.6546
vt 0.7362 0.6598
vt 0.5750 0.2167
vt 0.5750 0.2115
vt 0.2743 0.1839
vt 0.2743 0.1964
vt 0.9612 0.1811
vt 0.9956 0.2268
vt 0.9612 0.2268
vt 0.2739 0.0737
vt 0.0360 0.0871
vt 0.0359 0.0737
vt 0.8227 0.6145
vt 0.7883 0.4430
vt 0.8227 0.4430
vt 0.9180 0.1811
vt 0.9523 0.3526
vt 0.9180 0.3526
vt 0.8748 0.5369
vt 0.9091 0.7082
vt 0.8748 0.7082
vt 0.9612 0.3344
vt 0.9956 0.3773
vt 0.9612 0.3773
vt 0.8316 0.3290
vt 0.8659 0.1811
vt 0.8659 0.3290
vt 0.9612 0.2332
vt 0.9956 0.2788
vt 0.9612 0.2788
vt 0.8316 0.1241
vt 0.8659 0.0032
vt 0.8659 0.1241
vt 0.2040 0.1839
vt 0.2409 0.1964
vt 0.1282 0.1964
vt 0.0360 0.2167
vt 0.0360 0.2115
vt 0.3701 0.1964
vt 0.4070 0.1839
vt 0.4828 0.1964
vt 0.3367 0.1383
vt 0.3367 0.1272
vt 0.9612 0.3837
vt 0.9956 0.4238
vt 0.9612 0.4238
vt 0.3367 0.0871
vt 0.3371 0.0737
vt 0.5750 0.0871
vt 0.3099 0.0032
vt 0.6065 0.0032
vt 0.5751 0.0309
vt 0.0360 0.3140
vt 0.2743 0.3264
vt 0.0360 0.3264
vt 0.7883 0.6209
vt 0.8227 0.6735
vt 0.7883 0.6735
vt 0.9091 0.1747
vt 0.8748 0.0032
vt 0.9091 0.0032
vt 0.9612 0.2852
vt 0.9956 0.3280
vt 0.9612 0.3280
vt 0.9523 0.5305
vt 0.9180 0.3593
vt 0.9523 0.3593
vt 0.9956 0.0532
vt 0.9612 0.0032
vt 0.9956 0.0032
vt 0.7794 0.5741
vt 0.7451 0.0032
vt 0.7794 0.0032
vt 0.7019 0.0032
vt 0.7362 0.5741
vt 0.7019 0.5741
vt 0.7794 0.6395
vt 0.7451 0.6895
vt 0.7451 0.6395
vt 0.6498 0.0032
vt 0.6498 0.9968
vt 0.8227 0.0032
vt 0.2743 0.2489
vt 0.1863 0.9666
vt 0.1863 0.3957
vt 0.1169 0.3957
vt 0.2743 0.3139
vt 0.4941 0.3957
vt 0.3367 0.2489
vt 0.4247 0.3957
vt 0.3367 0.3140
vt 0.8227 0.2231
vt 0.9956 0.0596
vt 0.9091 0.1811
vt 0.0000 0.0000
vt 0.0000 0.0000
vt 0.0000 0.0000
vt 0.2743 0.2614
vt 0.7362 0.6331
vt 0.7019 0.6331
vt 0.7019 0.6218
vt 0.7019 0.5805
vt 0.7362 0.5805
vt 0.0000 0.0000
vt 0.0000 0.0000
vt 0.0000 0.0000
vt 0.6930 0.9968
vt 0.9956 0.4302
vt 0.2739 0.0309
vt 0.0360 0.1272
vt 0.0688 0.1383
vt 0.0360 0.1964
vt 0.5422 0.1383
vt 0.5750 0.1272
vt 0.5750 0.1964
vt 0.5751 0.0737
vt 0.8659 0.5369
vt 0.9956 0.1144
vt 0.7794 0.5805
vt 0.9091 0.5305
vt 0.8748 0.5305
vt 0.8748 0.3590
vt 0.9091 0.3831
vt 0.9091 0.3590
vt 0.8659 0.3590
vt 0.9523 0.0032
vt 0.7362 0.6921
vt 0.7019 0.6921
vt 0.7019 0.6598
vt 0.7019 0.6395
vt 0.7362 0.6395
vt 0.2743 0.1383
vt 0.2743 0.1272
vt 0.9956 0.1811
vt 0.2743 0.0871
vt 0.7883 0.6145
vt 0.9523 0.1811
vt 0.9091 0.5369
vt 0.9956 0.3344
vt 0.8659 0.3526
vt 0.8316 0.3526
vt 0.8316 0.1811
vt 0.9956 0.2332
vt 0.8659 0.1747
vt 0.8316 0.1747
vt 0.8316 0.0032
vt 0.3367 0.1839
vt 0.3367 0.1964
vt 0.9956 0.3837
vt 0.3371 0.0309
vt 0.8227 0.6209
vt 0.8748 0.1747
vt 0.9956 0.2852
vt 0.9180 0.5305
vt 0.9612 0.0532
vt 0.7451 0.5741
vt 0.7362 0.0032
vt 0.7794 0.6895
vn 0.4781 -0.8783 0.0000
vn 0.0000 -0.0000 -1.0000
vn -0.8783 -0.4781 0.0000
vn 0.8783 0.4781 -0.0000
vn -0.0000 0.0000 1.0000
vn -0.4781 0.8783 0.0000
vn 0.0000 -1.0000 0.0000
vn 1.0000 0.0000 0.0000
vn -0.8784 -0.4780 0.0000
vn -0.7627 -0.6468 0.0000
vn -0.8783 -0.4780 -0.0000
s off
f 2/1/1 4/2/1 1/3/1
f 4/2/1 6/4/1 1/3/1
f 8/5/2 3/6/2 2/7/2
f 6/8/3 15/9/3 1/10/3
f 19/11/3 14/12/3 21/13/3
f 23/14/4 25/15/4 27/16/4
f 31/17/4 22/18/4 5/19/4
f 6/20/5 27/21/5 19/22/5
f 36/23/6 9/24/6 8/25/6
f 41/26/3 1/10/3 18/27/3
f 20/28/1 25/29/1 14/30/1
f 14/31/2 31/32/2 15/33/2
f 42/34/3 36/35/3 79/36/3
f 18/37/6 28/38/6 46/39/6
f 28/40/4 4/41/4 46/42/4
f 48/43/4 49/44/4 50/45/4
f 83/46/4 26/47/4 52/48/4
f 36/23/6 27/49/6 37/50/6
f 7/51/6 40/52/6 34/53/6
f 8/54/3 2/55/3 35/56/3
f 59/57/3 60/58/3 36/35/3
f 67/59/4 37/60/4 66/61/4
f 43/62/5 26/63/5 20/64/5
f 15/65/6 52/66/6 43/67/6
f 16/68/6 49/69/6 44/70/6
f 80/71/5 74/72/5 62/73/5
f 79/74/2 29/75/2 17/76/2
f 44/77/5 48/78/5 42/79/5
f 64/80/1 72/81/1 51/82/1
f 37/60/4 51/83/4 72/84/4
f 33/85/3 1/10/3 45/86/3
f 33/87/6 76/88/6 53/89/6
f 54/90/3 84/91/3 56/92/3
f 34/93/5 70/94/5 84/95/5
f 57/96/2 10/97/2 7/98/2
f 55/99/5 38/100/5 35/101/5
f 35/102/1 71/103/1 56/104/1
f 58/105/5 76/106/5 68/107/5
f 59/108/1 66/109/1 60/110/1
f 61/111/2 66/112/2 65/113/2
f 61/114/3 80/115/3 62/116/3
f 82/117/3 36/35/3 64/118/3
f 81/119/4 65/120/4 74/121/4
f 76/122/4 4/41/4 10/123/4
f 84/124/1 69/125/1 57/126/1
f 40/127/4 77/128/4 70/129/4
f 3/130/4 9/131/4 38/132/4
f 78/133/3 43/134/3 20/135/3
f 42/136/1 83/137/1 78/138/1
f 78/139/2 30/140/2 16/141/2
f 54/142/6 75/143/6 55/144/6
f 56/145/2 77/146/2 54/147/2
f 12/148/5 24/149/5 13/150/5
f 13/151/1 23/152/1 21/153/1
f 11/154/6 32/155/6 12/156/6
f 11/157/2 23/158/2 22/159/2
f 2/1/1 3/160/1 4/2/1
f 4/2/1 5/161/1 6/4/1
f 8/5/2 9/162/2 3/6/2
f 18/27/3 1/10/3 17/163/3
f 6/8/3 11/164/3 15/9/3
f 12/165/3 13/166/3 14/12/3
f 12/165/3 14/12/3 15/9/3
f 17/163/3 1/10/3 16/167/3
f 16/167/3 1/10/3 15/9/3
f 11/164/3 12/165/3 15/9/3
f 11/164/3 6/8/3 19/11/3
f 19/11/3 20/135/3 14/12/3
f 14/12/3 13/166/3 21/13/3
f 21/13/3 11/164/3 19/11/3
f 27/16/4 5/19/4 22/18/4
f 23/14/4 24/168/4 25/15/4
f 27/16/4 22/18/4 23/14/4
f 25/15/4 26/47/4 27/16/4
f 5/19/4 4/41/4 31/17/4
f 28/40/4 29/169/4 4/41/4
f 31/17/4 25/15/4 32/170/4
f 4/41/4 29/169/4 30/171/4
f 25/15/4 24/168/4 32/170/4
f 4/41/4 30/171/4 31/17/4
f 32/170/4 22/18/4 31/17/4
f 6/20/5 5/172/5 27/21/5
f 36/23/6 37/50/6 9/24/6
f 20/28/1 26/173/1 25/29/1
f 14/31/2 25/174/2 31/32/2
f 17/175/7 16/176/7 44/177/7
f 42/34/3 19/11/3 36/35/3
f 17/163/3 44/178/3 42/34/3
f 36/35/3 82/117/3 79/36/3
f 79/36/3 17/163/3 42/34/3
f 47/179/6 45/180/6 41/181/6
f 18/37/6 17/182/6 29/183/6
f 47/179/6 41/181/6 46/39/6
f 29/183/6 28/38/6 18/37/6
f 46/39/6 41/181/6 18/37/6
f 37/60/4 27/16/4 48/43/4
f 49/184/5 30/185/5 29/186/5
f 50/45/4 51/83/4 37/60/4
f 49/44/4 29/169/4 50/45/4
f 50/45/4 37/60/4 48/43/4
f 52/48/8 31/17/8 30/171/8
f 83/46/4 48/43/4 27/16/4
f 52/48/4 30/171/4 83/46/4
f 83/46/4 27/16/4 26/47/4
f 36/23/6 19/187/6 27/49/6
f 7/51/6 10/188/6 40/52/6
f 35/56/3 56/92/3 8/54/3
f 2/55/3 54/90/3 55/189/3
f 55/189/3 35/56/3 2/55/3
f 36/35/3 8/54/3 57/190/3
f 57/190/3 58/191/3 59/57/3
f 8/54/3 56/92/3 57/190/3
f 63/192/3 64/118/3 36/35/3
f 61/114/3 62/116/3 60/58/3
f 60/58/3 62/116/3 63/192/3
f 36/35/3 57/190/3 59/57/3
f 60/58/3 63/192/3 36/35/3
f 74/121/4 65/120/4 66/61/4
f 67/59/4 68/193/4 69/194/4
f 73/195/4 74/121/4 66/61/4
f 67/59/4 69/194/4 37/60/4
f 72/84/4 73/195/4 37/60/4
f 69/194/4 70/129/4 9/131/4
f 73/195/4 66/61/4 37/60/4
f 9/131/4 37/60/4 69/194/4
f 70/129/4 71/196/4 9/131/4
f 43/62/5 52/197/5 26/63/5
f 15/65/6 31/198/6 52/66/6
f 16/68/6 30/199/6 49/69/6
f 73/200/5 63/201/5 62/73/5
f 80/71/5 45/202/5 81/203/5
f 73/200/5 62/73/5 74/72/5
f 81/203/5 74/72/5 80/71/5
f 45/202/5 47/204/5 81/203/5
f 79/74/2 50/205/2 29/75/2
f 44/77/5 49/206/5 48/78/5
f 50/207/1 79/208/1 82/209/1
f 64/80/1 63/210/1 73/211/1
f 50/207/1 82/209/1 51/82/1
f 73/211/1 72/81/1 64/80/1
f 51/82/1 82/209/1 64/80/1
f 80/115/3 61/114/3 33/85/3
f 53/212/3 58/191/3 7/213/3
f 45/86/3 80/115/3 33/85/3
f 58/191/3 57/190/3 7/213/3
f 41/26/3 45/86/3 1/10/3
f 33/85/3 53/212/3 1/10/3
f 7/213/3 1/10/3 53/212/3
f 33/87/6 39/214/6 76/88/6
f 54/90/3 2/55/3 34/215/3
f 1/10/3 7/213/3 2/55/3
f 84/91/9 57/190/9 56/92/9
f 2/55/3 7/213/3 34/215/3
f 34/215/3 84/91/3 54/90/3
f 34/93/5 40/216/5 70/94/5
f 57/96/2 69/217/2 10/97/2
f 55/99/5 75/218/5 38/100/5
f 35/102/1 38/219/1 71/103/1
f 67/220/5 59/221/5 58/105/5
f 58/105/5 53/222/5 76/106/5
f 68/107/5 67/220/5 58/105/5
f 59/108/1 67/223/1 66/109/1
f 39/224/2 33/225/2 61/111/2
f 61/111/2 60/226/2 66/112/2
f 65/113/2 39/224/2 61/111/2
f 39/227/4 65/120/4 81/119/4
f 47/228/4 46/42/4 4/41/4
f 39/227/4 81/119/4 47/228/4
f 69/194/4 68/193/4 10/123/4
f 39/227/4 47/228/4 4/41/4
f 10/123/4 68/193/4 76/122/4
f 76/122/4 39/227/4 4/41/4
f 84/124/1 70/229/1 69/125/1
f 40/127/4 10/123/4 3/130/4
f 4/41/4 3/130/4 10/123/4
f 77/128/4 71/196/4 70/129/4
f 40/127/4 3/130/4 77/128/4
f 75/230/4 77/128/4 3/130/4
f 9/131/4 71/196/4 38/132/4
f 38/132/4 75/230/4 3/130/4
f 19/11/3 42/34/3 78/133/3
f 16/167/10 15/9/10 43/134/10
f 20/135/11 19/11/11 78/133/11
f 16/167/3 43/134/3 78/133/3
f 42/136/1 48/231/1 83/137/1
f 78/139/2 83/232/2 30/140/2
f 54/142/6 77/233/6 75/143/6
f 56/145/2 71/234/2 77/146/2
f 12/148/5 32/235/5 24/149/5
f 13/151/1 24/236/1 23/152/1
f 11/154/6 22/237/6 32/155/6
f 11/157/2 21/238/2 23/158/2
