# Blender v2.77 (sub 0) OBJ File: 'Weaponry.blend'
# www.blender.org
o FeedBarrelRing_Cylinder.005
v -0.196868 -0.263135 0.033029
v -0.241950 -0.288011 0.034687
v -0.203302 -0.251750 0.034317
v -0.248383 -0.276626 0.035975
v -0.209488 -0.240802 0.038132
v -0.254569 -0.265678 0.039789
v -0.215189 -0.230713 0.044326
v -0.260270 -0.255589 0.045983
v -0.220185 -0.221869 0.052662
v -0.265267 -0.246746 0.054320
v -0.224286 -0.214612 0.062819
v -0.269368 -0.239488 0.064477
v -0.227334 -0.209219 0.074408
v -0.272415 -0.234095 0.076066
v -0.229210 -0.205898 0.086982
v -0.274292 -0.230774 0.088640
v -0.229844 -0.204777 0.100059
v -0.274925 -0.229653 0.101717
v -0.229210 -0.205898 0.113136
v -0.274292 -0.230774 0.114794
v -0.227334 -0.209219 0.125710
v -0.272415 -0.234095 0.127368
v -0.224286 -0.214612 0.137299
v -0.269368 -0.239488 0.138956
v -0.220185 -0.221869 0.147456
v -0.265267 -0.246746 0.149114
v -0.215189 -0.230713 0.155792
v -0.260270 -0.255589 0.157450
v -0.209488 -0.240802 0.161987
v -0.254569 -0.265678 0.163644
v -0.203302 -0.251750 0.165801
v -0.248383 -0.276626 0.167459
v -0.196868 -0.263135 0.167089
v -0.241950 -0.288011 0.168747
v -0.190435 -0.274520 0.165801
v -0.235517 -0.299396 0.167459
v -0.184249 -0.285467 0.161987
v -0.229331 -0.310343 0.163644
v -0.178548 -0.295556 0.155792
v -0.223630 -0.320433 0.157450
v -0.173551 -0.304400 0.147456
v -0.218633 -0.329276 0.149114
v -0.169450 -0.311657 0.137299
v -0.214532 -0.336533 0.138956
v -0.166403 -0.317050 0.125710
v -0.211485 -0.341926 0.127368
v -0.164527 -0.320371 0.113136
v -0.209608 -0.345247 0.114794
v -0.163893 -0.321492 0.100059
v -0.208975 -0.346368 0.101717
v -0.164527 -0.320371 0.086982
v -0.209608 -0.345247 0.088640
v -0.166403 -0.317050 0.074408
v -0.211485 -0.341926 0.076065
v -0.169450 -0.311657 0.062819
v -0.214532 -0.336533 0.064477
v -0.173551 -0.304400 0.052662
v -0.218633 -0.329276 0.054319
v -0.178548 -0.295556 0.044326
v -0.223630 -0.320433 0.045983
v -0.184249 -0.285467 0.038132
v -0.229331 -0.310343 0.039789
v -0.190435 -0.274519 0.034317
v -0.235517 -0.299396 0.035975
v -0.247125 -0.278852 0.048830
v -0.241950 -0.288011 0.047793
v -0.252102 -0.270045 0.051898
v -0.256688 -0.261928 0.056881
v -0.260708 -0.254814 0.063587
v -0.264007 -0.248976 0.071759
v -0.266458 -0.244638 0.081081
v -0.267968 -0.241966 0.091197
v -0.268477 -0.241064 0.101717
v -0.267968 -0.241966 0.112237
v -0.266458 -0.244638 0.122352
v -0.264007 -0.248976 0.131675
v -0.260708 -0.254814 0.139846
v -0.256688 -0.261929 0.146552
v -0.252102 -0.270045 0.151535
v -0.247125 -0.278852 0.154604
v -0.241950 -0.288011 0.155640
v -0.236775 -0.297170 0.154604
v -0.231798 -0.305977 0.151535
v -0.227212 -0.314093 0.146552
v -0.223192 -0.321207 0.139846
v -0.219893 -0.327046 0.131675
v -0.217442 -0.331384 0.122352
v -0.215932 -0.334056 0.112237
v -0.215422 -0.334958 0.101717
v -0.215932 -0.334056 0.091197
v -0.217442 -0.331384 0.081081
v -0.219893 -0.327046 0.071758
v -0.223192 -0.321207 0.063587
v -0.227212 -0.314093 0.056881
v -0.231798 -0.305977 0.051898
v -0.236775 -0.297170 0.048830
v -0.223732 -0.265634 0.048830
v -0.218557 -0.274792 0.047793
v -0.228709 -0.256827 0.051898
v -0.233295 -0.248710 0.056881
v -0.237315 -0.241596 0.063587
v -0.240614 -0.235758 0.071759
v -0.243065 -0.231419 0.081081
v -0.244575 -0.228748 0.091197
v -0.245084 -0.227846 0.101717
v -0.244575 -0.228748 0.112237
v -0.243065 -0.231419 0.122352
v -0.240614 -0.235758 0.131675
v -0.237315 -0.241596 0.139846
v -0.233295 -0.248710 0.146552
v -0.228709 -0.256827 0.151535
v -0.223732 -0.265634 0.154604
v -0.218557 -0.274792 0.155640
v -0.213382 -0.283951 0.154604
v -0.208405 -0.292758 0.151535
v -0.203819 -0.300875 0.146552
v -0.199799 -0.307989 0.139846
v -0.196500 -0.313827 0.131675
v -0.194049 -0.318166 0.122352
v -0.192539 -0.320837 0.112237
v -0.192029 -0.321739 0.101717
v -0.192539 -0.320837 0.091197
v -0.194049 -0.318166 0.081081
v -0.196500 -0.313827 0.071758
v -0.199799 -0.307989 0.063587
v -0.203819 -0.300875 0.056881
v -0.208405 -0.292758 0.051898
v -0.213382 -0.283951 0.048830
vt 0.4482 0.5685
vt 0.6138 0.5697
vt 0.6139 0.6123
vt 0.4484 0.6111
vt 0.6142 0.6525
vt 0.4486 0.6513
vt 0.6146 0.6887
vt 0.4490 0.6875
vt 0.6151 0.7194
vt 0.4495 0.7182
vt 0.7939 0.6929
vt 0.6284 0.6875
vt 0.6283 0.6567
vt 0.7938 0.6621
vt 0.6281 0.6206
vt 0.7936 0.6260
vt 0.6280 0.5804
vt 0.7936 0.5858
vt 0.6280 0.5377
vt 0.7935 0.5431
vt 0.6280 0.4942
vt 0.7936 0.4996
vt 0.6281 0.4516
vt 0.7936 0.4570
vt 0.6283 0.4114
vt 0.7938 0.4168
vt 0.6284 0.3752
vt 0.7939 0.3806
vt 0.9727 0.3189
vt 0.8071 0.3209
vt 0.8067 0.2902
vt 0.9723 0.2882
vt 0.8064 0.2540
vt 0.9720 0.2520
vt 0.8062 0.2138
vt 0.9718 0.2118
vt 0.8062 0.1711
vt 0.9717 0.1692
vt 0.8062 0.1277
vt 0.9718 0.1257
vt 0.8064 0.0850
vt 0.9720 0.0830
vt 0.8067 0.0448
vt 0.9723 0.0428
vt 0.8071 0.0086
vt 0.9727 0.0067
vt 0.6282 0.7118
vt 0.7937 0.7062
vt 0.7936 0.7424
vt 0.6281 0.7480
vt 0.7935 0.7826
vt 0.6280 0.7882
vt 0.7935 0.8252
vt 0.6280 0.8308
vt 0.7935 0.8687
vt 0.6280 0.8743
vt 0.7935 0.9114
vt 0.6280 0.9170
vt 0.7936 0.9516
vt 0.6281 0.9572
vt 0.7937 0.9877
vt 0.6282 0.9933
vt 0.4495 0.3752
vt 0.6151 0.3764
vt 0.6146 0.4072
vt 0.4490 0.4060
vt 0.6142 0.4433
vt 0.4486 0.4421
vt 0.6139 0.4835
vt 0.4484 0.4823
vt 0.1998 0.4483
vt 0.1583 0.4398
vt 0.1706 0.3983
vt 0.2039 0.4051
vt 0.6138 0.5262
vt 0.4482 0.5250
vt 0.0065 0.7041
vt 0.0065 0.6606
vt 0.0147 0.6180
vt 0.0309 0.5778
vt 0.0543 0.5416
vt 0.0842 0.5109
vt 0.1193 0.4867
vt 0.1583 0.4701
vt 0.1998 0.4616
vt 0.2420 0.4616
vt 0.2834 0.4701
vt 0.3225 0.4867
vt 0.3576 0.5109
vt 0.3874 0.5416
vt 0.4109 0.5778
vt 0.4271 0.6180
vt 0.4353 0.6606
vt 0.4353 0.7041
vt 0.4271 0.7468
vt 0.4109 0.7870
vt 0.3874 0.8231
vt 0.3576 0.8539
vt 0.3225 0.8781
vt 0.2834 0.8947
vt 0.2420 0.9032
vt 0.1998 0.9032
vt 0.1583 0.8947
vt 0.1193 0.8781
vt 0.0842 0.8539
vt 0.0543 0.8231
vt 0.0309 0.7870
vt 0.0147 0.7468
vt 0.8070 0.4000
vt 0.8069 0.3752
vt 0.8932 0.3752
vt 0.8934 0.4000
vt 0.4353 0.2057
vt 0.4353 0.2492
vt 0.3934 0.2450
vt 0.3934 0.2100
vt 0.1193 0.0318
vt 0.1583 0.0151
vt 0.1706 0.0567
vt 0.1392 0.0700
vt 0.0543 0.3682
vt 0.0309 0.3320
vt 0.0680 0.3116
vt 0.0869 0.3407
vt 0.3874 0.3682
vt 0.3576 0.3990
vt 0.3308 0.3654
vt 0.3549 0.3407
vt 0.2834 0.0151
vt 0.3225 0.0318
vt 0.3026 0.0700
vt 0.2712 0.0567
vt 0.0065 0.2057
vt 0.0147 0.1631
vt 0.0550 0.1756
vt 0.0484 0.2100
vt 0.2420 0.4483
vt 0.2379 0.4051
vt 0.4271 0.1631
vt 0.3868 0.1756
vt 0.0842 0.0560
vt 0.1109 0.0895
vt 0.0842 0.3990
vt 0.1109 0.3654
vt 0.4109 0.3320
vt 0.3738 0.3116
vt 0.2420 0.0067
vt 0.2379 0.0498
vt 0.0065 0.2492
vt 0.0484 0.2450
vt 0.2834 0.4398
vt 0.2712 0.3983
vt 0.3874 0.0867
vt 0.4109 0.1229
vt 0.3738 0.1433
vt 0.3549 0.1142
vt 0.0543 0.0867
vt 0.0869 0.1142
vt 0.1193 0.4231
vt 0.1392 0.3849
vt 0.4271 0.2919
vt 0.3868 0.2793
vt 0.1998 0.0067
vt 0.2039 0.0498
vt 0.0147 0.2919
vt 0.0550 0.2793
vt 0.3225 0.4231
vt 0.3026 0.3849
vt 0.3576 0.0560
vt 0.3308 0.0895
vt 0.0309 0.1229
vt 0.0680 0.1433
vt 0.7307 0.0463
vt 0.7547 0.0711
vt 0.7736 0.1001
vt 0.7866 0.1325
vt 0.7932 0.1668
vt 0.7932 0.2018
vt 0.7866 0.2361
vt 0.7736 0.2684
vt 0.7547 0.2975
vt 0.7307 0.3223
vt 0.7024 0.3417
vt 0.6711 0.3551
vt 0.6377 0.3619
vt 0.6037 0.3619
vt 0.5704 0.3551
vt 0.5390 0.3417
vt 0.5108 0.3223
vt 0.4867 0.2975
vt 0.4679 0.2684
vt 0.4549 0.2361
vt 0.4482 0.2018
vt 0.4482 0.1668
vt 0.4549 0.1325
vt 0.4679 0.1001
vt 0.4867 0.0711
vt 0.5108 0.0463
vt 0.5390 0.0269
vt 0.5704 0.0135
vt 0.6037 0.0067
vt 0.6377 0.0067
vt 0.6711 0.0135
vt 0.7024 0.0269
vt 0.4482 0.8635
vt 0.4483 0.8285
vt 0.5346 0.8285
vt 0.5346 0.8635
vt 0.8072 0.4291
vt 0.8935 0.4291
vt 0.4483 0.8978
vt 0.5346 0.8978
vt 0.8072 0.4614
vt 0.8936 0.4614
vt 0.4483 0.9301
vt 0.5347 0.9301
vt 0.8073 0.4957
vt 0.8937 0.4957
vt 0.4483 0.9592
vt 0.5347 0.9592
vt 0.8073 0.5307
vt 0.8937 0.5307
vt 0.4484 0.9839
vt 0.5348 0.9840
vt 0.8072 0.5650
vt 0.8936 0.5650
vt 0.8074 0.6936
vt 0.8077 0.6645
vt 0.8941 0.6646
vt 0.8937 0.6937
vt 0.8072 0.5973
vt 0.8935 0.5973
vt 0.8071 0.7259
vt 0.8934 0.7261
vt 0.9929 0.4710
vt 0.9929 0.5060
vt 0.9066 0.5060
vt 0.9066 0.4710
vt 0.8070 0.6264
vt 0.8934 0.6264
vt 0.8069 0.7602
vt 0.8933 0.7604
vt 0.9930 0.4366
vt 0.9067 0.4366
vt 0.8069 0.6512
vt 0.8932 0.6512
vt 0.8069 0.7952
vt 0.8932 0.7954
vt 0.9932 0.4043
vt 0.9069 0.4043
vt 0.9932 0.5726
vt 0.9935 0.6017
vt 0.9072 0.6017
vt 0.9069 0.5726
vt 0.8069 0.8295
vt 0.8933 0.8297
vt 0.9935 0.3752
vt 0.9072 0.3752
vt 0.9930 0.5403
vt 0.9067 0.5403
vt 0.8071 0.8619
vt 0.8934 0.8620
vt 0.4483 0.7618
vt 0.4484 0.7327
vt 0.5348 0.7328
vt 0.5347 0.7619
vt 0.8074 0.8910
vt 0.8937 0.8911
vt 0.4483 0.7942
vt 0.5347 0.7942
vt 0.8077 0.9157
vt 0.8941 0.9158
vn 0.5870 0.3311 -0.7388
vn -0.6073 -0.3426 -0.7168
vn -0.6755 -0.2200 -0.7037
vn 0.5171 0.4567 -0.7239
vn -0.7409 -0.1016 -0.6639
vn 0.4505 0.5773 -0.6810
vn -0.8010 0.0083 -0.5985
vn 0.3898 0.6882 -0.6119
vn -0.8537 0.1055 -0.5099
vn 0.3374 0.7851 -0.5194
vn -0.8968 0.1863 -0.4014
vn 0.2953 0.8642 -0.4074
vn -0.9286 0.2473 -0.2767
vn 0.2650 0.9226 -0.2803
vn -0.9478 0.2862 -0.1408
vn 0.2476 0.9582 -0.1433
vn -0.9536 0.3012 0.0015
vn 0.2438 0.9698 -0.0014
vn -0.9456 0.2916 0.1444
vn 0.2534 0.9572 0.1396
vn -0.9240 0.2575 0.2824
vn 0.2761 0.9210 0.2746
vn -0.8897 0.2003 0.4101
vn 0.3109 0.8628 0.3986
vn -0.8439 0.1219 0.5224
vn 0.3565 0.7848 0.5069
vn -0.7884 0.0255 0.6146
vn 0.4111 0.6900 0.5957
vn -0.7254 -0.0851 0.6830
vn 0.4726 0.5820 0.6617
vn -0.6573 -0.2056 0.7250
vn 0.5388 0.4648 0.7026
vn -0.5870 -0.3311 0.7388
vn 0.6073 0.3426 0.7168
vn -0.5171 -0.4567 0.7239
vn 0.6755 0.2200 0.7037
vn -0.4505 -0.5773 0.6810
vn 0.7409 0.1016 0.6639
vn -0.3898 -0.6882 0.6119
vn 0.8010 -0.0083 0.5985
vn -0.3374 -0.7851 0.5194
vn 0.8537 -0.1055 0.5099
vn -0.2953 -0.8642 0.4074
vn 0.8968 -0.1863 0.4013
vn -0.2650 -0.9226 0.2803
vn 0.9286 -0.2473 0.2767
vn -0.2476 -0.9582 0.1433
vn 0.9478 -0.2862 0.1408
vn -0.2438 -0.9698 0.0014
vn 0.9536 -0.3012 -0.0015
vn -0.2534 -0.9572 -0.1396
vn 0.9456 -0.2916 -0.1444
vn -0.2761 -0.9210 -0.2746
vn 0.9240 -0.2575 -0.2824
vn -0.3109 -0.8628 -0.3986
vn 0.8897 -0.2003 -0.4101
vn -0.3565 -0.7848 -0.5069
vn 0.8439 -0.1219 -0.5224
vn -0.4111 -0.6900 -0.5957
vn 0.7884 -0.0255 -0.6146
vn -0.4726 -0.5820 -0.6617
vn 0.7254 0.0851 -0.6830
vn -0.8732 0.0618 -0.4834
vn -0.9150 0.1358 -0.3798
vn -0.5388 -0.4648 -0.7026
vn 0.6573 0.2056 -0.7250
vn -0.8502 0.1108 -0.5147
vn -0.8947 0.1896 -0.4044
vn -0.8223 -0.0284 0.5684
vn -0.7641 -0.1313 0.6316
vn -0.3056 -0.9428 0.1334
vn -0.2991 -0.9542 0.0000
vn -0.6354 -0.3590 -0.6836
vn -0.7010 -0.2429 -0.6705
vn -0.9652 0.2247 0.1333
vn -0.9461 0.1908 0.2616
vn -0.4486 -0.6897 0.5684
vn -0.3976 -0.7799 0.4834
vn -0.3976 -0.7799 -0.4834
vn -0.4486 -0.6897 -0.5684
vn -0.9461 0.1908 -0.2616
vn -0.7010 -0.2429 0.6705
vn -0.3056 -0.9428 -0.1334
vn -0.7641 -0.1313 -0.6316
vn -0.9150 0.1358 0.3798
vn -0.3558 -0.8539 0.3798
vn -0.5067 -0.5868 -0.6316
vn -0.9652 0.2247 -0.1333
vn -0.6354 -0.3590 0.6836
vn -0.5698 -0.4751 0.6705
vn -0.3247 -0.9089 -0.2616
vn -0.8223 -0.0284 -0.5684
vn -0.8732 0.0618 0.4834
vn -0.3247 -0.9089 0.2616
vn -0.5698 -0.4751 -0.6705
vn -0.9717 0.2361 0.0000
vn -0.5067 -0.5868 0.6316
vn -0.3558 -0.8539 -0.3798
vn -0.5271 -0.4610 0.7139
vn -0.5970 -0.3373 0.7279
vn -0.6668 -0.2137 0.7139
vn -0.7340 -0.0948 0.6725
vn -0.7959 0.0147 0.6052
vn -0.8502 0.1108 0.5147
vn -0.8947 0.1896 0.4044
vn -0.9278 0.2481 0.2785
vn -0.9482 0.2842 0.1420
vn -0.9550 0.2964 0.0000
vn -0.9482 0.2842 -0.1420
vn -0.9278 0.2481 -0.2785
vn -0.7959 0.0147 -0.6052
vn -0.7340 -0.0948 -0.6725
vn -0.6668 -0.2137 -0.7139
vn -0.5970 -0.3373 -0.7279
vn -0.5271 -0.4610 -0.7139
vn -0.4599 -0.5798 -0.6725
vn -0.3980 -0.6894 -0.6052
vn -0.3438 -0.7854 -0.5147
vn -0.2992 -0.8642 -0.4044
vn -0.2662 -0.9228 -0.2785
vn -0.2458 -0.9589 -0.1420
vn -0.2389 -0.9710 0.0000
vn -0.2458 -0.9589 0.1420
vn -0.2662 -0.9228 0.2785
vn -0.2992 -0.8642 0.4044
vn -0.3438 -0.7854 0.5147
vn -0.3980 -0.6894 0.6052
vn -0.4599 -0.5798 0.6725
s 1
f 1/1/1 2/2/2 4/3/3 3/4/4
f 3/4/4 4/3/3 6/5/5 5/6/6
f 5/6/6 6/5/5 8/7/7 7/8/8
f 7/8/8 8/7/7 10/9/9 9/10/10
f 9/11/10 10/12/9 12/13/11 11/14/12
f 11/14/12 12/13/11 14/15/13 13/16/14
f 13/16/14 14/15/13 16/17/15 15/18/16
f 15/18/16 16/17/15 18/19/17 17/20/18
f 17/20/18 18/19/17 20/21/19 19/22/20
f 19/22/20 20/21/19 22/23/21 21/24/22
f 21/24/22 22/23/21 24/25/23 23/26/24
f 23/26/24 24/25/23 26/27/25 25/28/26
f 25/29/26 26/30/25 28/31/27 27/32/28
f 27/32/28 28/31/27 30/33/29 29/34/30
f 29/34/30 30/33/29 32/35/31 31/36/32
f 31/36/32 32/35/31 34/37/33 33/38/34
f 33/38/34 34/37/33 36/39/35 35/40/36
f 35/40/36 36/39/35 38/41/37 37/42/38
f 37/42/38 38/41/37 40/43/39 39/44/40
f 39/44/40 40/43/39 42/45/41 41/46/42
f 41/47/42 42/48/41 44/49/43 43/50/44
f 43/50/44 44/49/43 46/51/45 45/52/46
f 45/52/46 46/51/45 48/53/47 47/54/48
f 47/54/48 48/53/47 50/55/49 49/56/50
f 49/56/50 50/55/49 52/57/51 51/58/52
f 51/58/52 52/57/51 54/59/53 53/60/54
f 53/60/54 54/59/53 56/61/55 55/62/56
f 55/63/56 56/64/55 58/65/57 57/66/58
f 57/66/58 58/65/57 60/67/59 59/68/60
f 59/68/60 60/67/59 62/69/61 61/70/62
f 44/71/43 42/72/41 85/73/63 86/74/64
f 61/70/62 62/69/61 64/75/65 63/76/66
f 63/76/66 64/75/65 2/2/2 1/1/1
f 1/77/1 3/78/4 5/79/6 7/80/8 9/81/10 11/82/12 13/83/14 15/84/16 17/85/18 19/86/20 21/87/22 23/88/24 25/89/26 27/90/28 29/91/30 31/92/32 33/93/34 35/94/36 37/95/38 39/96/40 41/97/42 43/98/44 45/99/46 47/100/48 49/101/50 51/102/52 53/103/54 55/104/56 57/105/58 59/106/60 61/107/62 63/108/66
f 86/109/64 85/110/63 117/111/67 118/112/68
f 62/113/61 60/114/59 94/115/69 95/116/70
f 18/117/17 16/118/15 72/119/71 73/120/72
f 36/121/35 34/122/33 81/123/73 82/124/74
f 54/125/53 52/126/51 90/127/75 91/128/76
f 10/129/9 8/130/7 68/131/77 69/132/78
f 28/133/27 26/134/25 77/135/79 78/136/80
f 46/137/45 44/71/43 86/74/64 87/138/81
f 64/139/65 62/113/61 95/116/70 96/140/82
f 20/141/19 18/117/17 73/120/72 74/142/83
f 38/143/37 36/121/35 82/124/74 83/144/84
f 56/145/55 54/125/53 91/128/76 92/146/85
f 12/147/11 10/129/9 69/132/78 70/148/86
f 30/149/29 28/133/27 78/136/80 79/150/87
f 48/151/47 46/137/45 87/138/81 88/152/88
f 4/153/3 2/154/2 66/155/89 65/156/90
f 2/154/2 64/139/65 96/140/82 66/155/89
f 22/157/21 20/141/19 74/142/83 75/158/91
f 40/159/39 38/143/37 83/144/84 84/160/92
f 58/161/57 56/145/55 92/146/85 93/162/93
f 14/163/13 12/147/11 70/148/86 71/164/94
f 32/165/31 30/149/29 79/150/87 80/166/95
f 50/167/49 48/151/47 88/152/88 89/168/96
f 6/169/5 4/153/3 65/156/90 67/170/97
f 24/171/23 22/157/21 75/158/91 76/172/98
f 42/72/41 40/159/39 84/160/92 85/73/63
f 60/114/59 58/161/57 93/162/93 94/115/69
f 16/118/15 14/163/13 71/164/94 72/119/71
f 34/122/33 32/165/31 80/166/95 81/123/73
f 52/126/51 50/167/49 89/168/96 90/127/75
f 8/130/7 6/169/5 67/170/97 68/131/77
f 26/134/25 24/171/23 76/172/98 77/135/79
f 97/173/99 98/174/100 128/175/101 127/176/102 126/177/103 125/178/104 124/179/105 123/180/106 122/181/107 121/182/108 120/183/109 119/184/110 118/185/68 117/186/67 116/187/111 115/188/112 114/189/113 113/190/114 112/191/115 111/192/116 110/193/117 109/194/118 108/195/119 107/196/120 106/197/121 105/198/122 104/199/123 103/200/124 102/201/125 101/202/126 100/203/127 99/204/128
f 73/205/72 72/206/71 104/207/123 105/208/122
f 87/209/81 86/109/64 118/112/68 119/210/110
f 74/211/83 73/205/72 105/208/122 106/212/121
f 88/213/88 87/209/81 119/210/110 120/214/109
f 75/215/91 74/211/83 106/212/121 107/216/120
f 89/217/96 88/213/88 120/214/109 121/218/108
f 76/219/98 75/215/91 107/216/120 108/220/119
f 90/221/75 89/217/96 121/218/108 122/222/107
f 77/223/79 76/219/98 108/220/119 109/224/118
f 91/225/76 90/221/75 122/222/107 123/226/106
f 78/227/80 77/228/79 109/229/118 110/230/117
f 92/231/85 91/225/76 123/226/106 124/232/105
f 79/233/87 78/227/80 110/230/117 111/234/116
f 65/235/90 66/236/89 98/237/100 97/238/99
f 93/239/93 92/231/85 124/232/105 125/240/104
f 80/241/95 79/233/87 111/234/116 112/242/115
f 67/243/97 65/235/90 97/238/99 99/244/128
f 94/245/69 93/239/93 125/240/104 126/246/103
f 81/247/73 80/241/95 112/242/115 113/248/114
f 68/249/77 67/243/97 99/244/128 100/250/127
f 95/251/70 94/252/69 126/253/103 127/254/102
f 82/255/74 81/247/73 113/248/114 114/256/113
f 69/257/78 68/249/77 100/250/127 101/258/126
f 96/259/82 95/251/70 127/254/102 128/260/101
f 83/261/84 82/255/74 114/256/113 115/262/112
f 70/263/86 69/264/78 101/265/126 102/266/125
f 66/236/89 96/259/82 128/260/101 98/237/100
f 84/267/92 83/261/84 115/262/112 116/268/111
f 71/269/94 70/263/86 102/266/125 103/270/124
f 85/271/63 84/267/92 116/268/111 117/272/67
f 72/206/71 71/269/94 103/270/124 104/207/123
