# Blender v2.77 (sub 0) OBJ File: 'Weaponry.blend'
# www.blender.org
o FeedCable_Mesh.001
v -0.201800 -0.243811 0.123018
v -0.203322 -0.226443 0.088095
v -0.202204 -0.238758 0.051072
v -0.199100 -0.273544 0.039153
v -0.195828 -0.310422 0.054075
v -0.194306 -0.327790 0.080927
v -0.195424 -0.315475 0.117950
v -0.198528 -0.280689 0.135385
v -0.269941 -0.254735 0.141500
v -0.289230 -0.240092 0.110887
v -0.303288 -0.254735 0.077547
v -0.303879 -0.290087 0.061009
v -0.290657 -0.325439 0.070960
v -0.271367 -0.340082 0.101573
v -0.257309 -0.325439 0.134913
v -0.256719 -0.290087 0.151451
v -0.332363 -0.274529 0.195086
v -0.362286 -0.263054 0.172803
v -0.385382 -0.280391 0.146542
v -0.388122 -0.316383 0.131686
v -0.368900 -0.349947 0.136939
v -0.338977 -0.361422 0.159223
v -0.315881 -0.344086 0.185484
v -0.313141 -0.308093 0.200339
v -0.386550 -0.302069 0.279405
v -0.421416 -0.292994 0.264382
v -0.448674 -0.312352 0.244235
v -0.452357 -0.348803 0.230767
v -0.430308 -0.380994 0.231866
v -0.395443 -0.390069 0.246889
v -0.368185 -0.370710 0.267035
v -0.364501 -0.334260 0.280504
v -0.428773 -0.335204 0.386584
v -0.465972 -0.327907 0.377275
v -0.495167 -0.348740 0.361873
v -0.499257 -0.385501 0.349400
v -0.475846 -0.416654 0.347163
v -0.438647 -0.423951 0.356471
v -0.409452 -0.403117 0.371873
v -0.405362 -0.366357 0.384346
v -0.456567 -0.371652 0.507850
v -0.494915 -0.365838 0.503459
v -0.525046 -0.387881 0.492064
v -0.529312 -0.424867 0.480340
v -0.505211 -0.455132 0.475155
v -0.466864 -0.460945 0.479546
v -0.436732 -0.438903 0.490941
v -0.432467 -0.401917 0.502665
v -0.468177 -0.409197 0.634466
v -0.506962 -0.404827 0.634931
v -0.537443 -0.428022 0.627410
v -0.541765 -0.465193 0.616310
v -0.517395 -0.494568 0.608132
v -0.478609 -0.498938 0.607667
v -0.448128 -0.475744 0.615188
v -0.443807 -0.438572 0.626288
v -0.462202 -0.445650 0.757740
v -0.500678 -0.442915 0.763721
v -0.530917 -0.467389 0.760515
v -0.535205 -0.504735 0.750001
v -0.511031 -0.533076 0.738338
v -0.472555 -0.535810 0.732357
v -0.442316 -0.511336 0.735562
v -0.438028 -0.473990 0.746076
v -0.437601 -0.478805 0.868937
v -0.474403 -0.478171 0.881933
v -0.503352 -0.504262 0.884130
v -0.507491 -0.541794 0.874240
v -0.484396 -0.568782 0.858058
v -0.447594 -0.569417 0.845062
v -0.418645 -0.543326 0.842866
v -0.414506 -0.505793 0.852755
v -0.393983 -0.506468 0.959430
v -0.426010 -0.508668 0.981634
v -0.451324 -0.536917 0.990844
v -0.455096 -0.574668 0.981664
v -0.435115 -0.599807 0.959472
v -0.403088 -0.597607 0.937268
v -0.377774 -0.569358 0.928059
v -0.374003 -0.531607 0.937239
v -0.331582 -0.526758 1.021794
v -0.352885 -0.532261 1.054035
v -0.370088 -0.563008 1.070836
v -0.373113 -0.600989 1.062354
v -0.360189 -0.623954 1.033558
v -0.338886 -0.618451 1.001317
v -0.321683 -0.587703 0.984516
v -0.318657 -0.549723 0.992998
v -0.248720 -0.538480 1.050788
v -0.253762 -0.546288 1.088699
v -0.258724 -0.578771 1.109768
v -0.260698 -0.616900 1.101653
v -0.258529 -0.638341 1.069107
v -0.253487 -0.630533 1.031196
v -0.248525 -0.598051 1.010127
v -0.246551 -0.559921 1.018242
v -0.140472 -0.540134 1.039597
v -0.129849 -0.548289 1.076262
v -0.123054 -0.581032 1.096395
v -0.124068 -0.619183 1.088203
v -0.132297 -0.640393 1.056485
v -0.142920 -0.632238 1.019821
v -0.149714 -0.599495 0.999687
v -0.148700 -0.561344 1.007879
vt 0.6915 0.9673
vt 0.6896 0.9145
vt 0.7164 0.9196
vt 0.7180 0.9647
vt 0.3040 0.8361
vt 0.2382 0.8208
vt 0.2514 0.7945
vt 0.3035 0.8069
vt 0.3078 0.8598
vt 0.2305 0.8422
vt 0.9231 0.3645
vt 0.9200 0.4451
vt 0.8924 0.4402
vt 0.8959 0.3624
vt 0.9496 0.3671
vt 0.9471 0.4400
vt 0.6441 0.0461
vt 0.5852 0.0603
vt 0.5720 0.0340
vt 0.6439 0.0227
vt 0.6405 0.0698
vt 0.5932 0.0815
vt 0.9239 0.9773
vt 0.9223 0.9322
vt 0.9502 0.9279
vt 0.9519 0.9759
vt 0.6914 0.8636
vt 0.7180 0.8736
vt 0.1800 0.7747
vt 0.2016 0.7545
vt 0.1651 0.7908
vt 0.7310 0.8182
vt 0.7209 0.7565
vt 0.7504 0.7540
vt 0.7602 0.8141
vt 0.9496 0.5025
vt 0.9227 0.5124
vt 0.5316 0.1037
vt 0.5099 0.0836
vt 0.5467 0.1196
vt 0.9240 0.8862
vt 0.9519 0.8801
vt 0.1564 0.6902
vt 0.1743 0.6809
vt 0.2172 0.7421
vt 0.1307 0.7049
vt 0.1123 0.7163
vt 0.7147 0.6741
vt 0.7442 0.6727
vt 0.4591 0.1563
vt 0.4411 0.1470
vt 0.4943 0.0711
vt 0.4848 0.1708
vt 0.5033 0.1820
vt 0.8469 0.0256
vt 0.8412 0.0921
vt 0.8117 0.0904
vt 0.8175 0.0227
vt 0.1189 0.6076
vt 0.1380 0.6009
vt 0.0911 0.6178
vt 0.0710 0.6256
vt 0.7114 0.5777
vt 0.7409 0.5771
vt 0.4191 0.2454
vt 0.4000 0.2387
vt 0.4469 0.2555
vt 0.4671 0.2630
vt 0.8374 0.1765
vt 0.8078 0.1756
vt 0.9150 0.0227
vt 0.9132 0.1199
vt 0.8924 0.1213
vt 0.8941 0.0265
vt 0.0626 0.5198
vt 0.0914 0.5133
vt 0.0415 0.5244
vt 0.7104 0.4728
vt 0.7400 0.4728
vt 0.6905 0.5737
vt 0.6896 0.4711
vt 0.4196 0.3513
vt 0.3907 0.3450
vt 0.4407 0.3557
vt 0.8354 0.2713
vt 0.8058 0.2710
vt 0.9133 0.2202
vt 0.8925 0.2193
vt 0.0464 0.4168
vt 0.0759 0.4142
vt 0.0249 0.4184
vt 0.7115 0.3650
vt 0.7411 0.3655
vt 0.6906 0.3657
vt 0.4045 0.4517
vt 0.3750 0.4493
vt 0.4260 0.4531
vt 0.8353 0.3693
vt 0.8057 0.3695
vt 0.9150 0.3169
vt 0.8941 0.3133
vt 0.0443 0.3151
vt 0.0738 0.3168
vt 0.0227 0.3133
vt 0.7142 0.2601
vt 0.7438 0.2611
vt 0.6933 0.2636
vt 0.4029 0.5502
vt 0.3734 0.5521
vt 0.4245 0.5482
vt 0.8366 0.4633
vt 0.8070 0.4639
vt 0.0864 0.2279
vt 0.1061 0.2322
vt 0.0940 0.3175
vt 0.0578 0.2206
vt 0.0369 0.2145
vt 0.7185 0.1639
vt 0.7480 0.1653
vt 0.3877 0.6477
vt 0.3681 0.6520
vt 0.3533 0.5528
vt 0.4163 0.6402
vt 0.4371 0.6339
vt 0.8393 0.5460
vt 0.8097 0.5471
vt 0.1145 0.1543
vt 0.1321 0.1635
vt 0.0890 0.1394
vt 0.0705 0.1276
vt 0.7240 0.0821
vt 0.7535 0.0841
vt 0.4199 0.7301
vt 0.4024 0.7393
vt 0.4454 0.7151
vt 0.4638 0.7030
vt 0.8428 0.6104
vt 0.8133 0.6120
vt 0.1583 0.1016
vt 0.1709 0.1164
vt 0.1404 0.0782
vt 0.1276 0.0599
vt 0.7307 0.0227
vt 0.7602 0.0252
vt 0.4729 0.7924
vt 0.4604 0.8072
vt 0.4907 0.7689
vt 0.5034 0.7504
vt 0.8469 0.6515
vt 0.8175 0.6536
vt 0.2194 0.0739
vt 0.2241 0.0923
vt 0.2134 0.0451
vt 0.2097 0.0227
vt 0.8307 0.8860
vt 0.8248 0.8030
vt 0.8543 0.8025
vt 0.8601 0.8848
vt 0.5480 0.8259
vt 0.5435 0.8442
vt 0.5538 0.7971
vt 0.5575 0.7746
vt 0.9773 0.6995
vt 0.9748 0.7535
vt 0.9453 0.7539
vt 0.9479 0.6991
vt 0.9111 0.5578
vt 0.9111 0.6400
vt 0.8925 0.6351
vt 0.8924 0.5608
vt 0.3078 0.0474
vt 0.3018 0.0762
vt 0.8542 0.6993
vt 0.8768 0.7039
vt 0.8768 0.7981
vt 0.8248 0.6991
vt 0.8057 0.7993
vt 0.8057 0.7033
vt 0.6380 0.7943
vt 0.6441 0.8231
vt 0.9478 0.8289
vt 0.9251 0.8347
vt 0.9223 0.7508
vt 0.9773 0.8278
vn 0.0797 0.7022 0.7074
vn 0.1839 0.7254 0.6633
vn 0.4670 0.0124 0.8842
vn 0.2689 -0.0300 0.9627
vn -0.1538 0.9880 0.0086
vn -0.1976 0.9792 0.0445
vn -0.2724 0.6736 -0.6870
vn -0.4494 0.6639 -0.5977
vn -0.2131 0.0200 -0.9768
vn -0.4375 -0.0112 -0.8991
vn -0.0591 -0.6205 -0.7819
vn -0.1997 -0.6545 -0.7292
vn 0.1269 -0.9777 -0.1676
vn 0.1535 -0.9758 -0.1554
vn 0.2853 -0.7412 0.6076
vn 0.4483 -0.7143 0.5373
vn 0.3397 0.7574 0.5575
vn 0.7368 0.0890 0.6702
vn -0.2528 0.9613 0.1093
vn -0.6862 0.6108 -0.3948
vn -0.7343 -0.0737 -0.6748
vn -0.3765 -0.7204 -0.5824
vn 0.2038 -0.9664 -0.1566
vn 0.6768 -0.6373 0.3684
vn 0.4139 0.7848 0.4611
vn 0.8607 0.1476 0.4871
vn -0.2739 0.9483 0.1601
vn -0.7940 0.5626 -0.2302
vn -0.8620 -0.1376 -0.4879
vn -0.4440 -0.7623 -0.4709
vn 0.2352 -0.9546 -0.1827
vn 0.7842 -0.5814 0.2167
vn 0.4489 0.8065 0.3848
vn 0.9196 0.1916 0.3430
vn -0.2835 0.9383 0.1980
vn -0.8444 0.5258 -0.1018
vn -0.9215 -0.1838 -0.3421
vn -0.4739 -0.7904 -0.3881
vn 0.2521 -0.9447 -0.2099
vn 0.8361 -0.5404 0.0941
vn 0.4651 0.8251 0.3206
vn 0.9484 0.2287 0.2197
vn -0.2893 0.9289 0.2311
vn -0.8695 0.4938 0.0085
vn -0.9505 -0.2214 -0.2180
vn -0.4884 -0.8116 -0.3204
vn 0.2605 -0.9357 -0.2377
vn 0.8620 -0.5068 -0.0136
vn 0.4699 0.8436 0.2599
vn 0.9591 0.2651 0.0992
vn -0.2930 0.9184 0.2658
vn -0.8794 0.4612 0.1179
vn -0.9616 -0.2570 -0.0965
vn -0.4949 -0.8303 -0.2564
vn 0.2628 -0.9267 -0.2687
vn 0.8717 -0.4746 -0.1217
vn 0.4634 0.8645 0.1947
vn 0.9512 0.3065 -0.0360
vn -0.2937 0.9048 0.3083
vn -0.8729 0.4227 0.2434
vn -0.9542 -0.2963 0.0408
vn -0.4937 -0.8495 -0.1857
vn 0.2576 -0.9163 -0.3065
vn 0.8642 -0.4390 -0.2458
vn 0.4386 0.8910 0.1170
vn 0.9100 0.3598 -0.2058
vn -0.2862 0.8849 0.3674
vn -0.8356 0.3716 0.4046
vn -0.9132 -0.3460 0.2151
vn -0.4785 -0.8728 -0.0962
vn 0.2392 -0.9035 -0.3555
vn 0.8252 -0.3944 -0.4042
vn 0.3774 0.9257 0.0229
vn 0.7944 0.4323 -0.4266
vn -0.2539 0.8551 0.4520
vn -0.7263 0.3013 0.6178
vn -0.7959 -0.4123 0.4433
vn -0.4276 -0.9037 0.0233
vn 0.1945 -0.8878 -0.4172
vn 0.7156 -0.3358 -0.6125
vn 0.2561 0.9640 -0.0711
vn 0.5334 0.5187 -0.6681
vn -0.1627 0.8189 0.5503
vn -0.4788 0.2211 0.8496
vn -0.5342 -0.4898 0.6889
vn -0.3012 -0.9409 0.1547
vn 0.1088 -0.8708 -0.4793
vn 0.4688 -0.2684 -0.8415
vn 0.0904 0.9875 -0.1286
vn 0.1369 0.5752 -0.8065
vn -0.0101 0.7971 0.6037
vn -0.1032 0.1679 0.9804
vn -0.1400 -0.5453 0.8264
vn -0.1014 -0.9691 0.2250
vn -0.0051 -0.8549 -0.5188
vn 0.0959 -0.2152 -0.9718
vn -0.0005 0.9890 -0.1479
vn -0.0772 0.5756 -0.8141
vn 0.0729 0.7945 0.6028
vn 0.0997 0.1541 0.9830
vn 0.0728 -0.5523 0.8305
vn 0.0064 -0.9741 0.2262
vn -0.0684 -0.8428 -0.5338
vn -0.1054 -0.1913 -0.9758
s 1
f 1/1/1 9/2/2 16/3/3 8/4/4
f 2/5/5 10/6/6 9/7/2 1/8/1
f 3/9/7 11/10/8 10/6/6 2/5/5
f 4/11/9 12/12/10 11/13/8 3/14/7
f 5/15/11 13/16/12 12/12/10 4/11/9
f 6/17/13 14/18/14 13/19/12 5/20/11
f 7/21/15 15/22/16 14/18/14 6/17/13
f 8/23/4 16/24/3 15/25/16 7/26/15
f 9/2/2 17/27/17 24/28/18 16/3/3
f 10/6/6 18/29/19 17/30/17 9/7/2
f 11/10/8 19/31/20 18/29/19 10/6/6
f 12/32/10 20/33/21 19/34/20 11/35/8
f 13/16/12 21/36/22 20/37/21 12/12/10
f 14/18/14 22/38/23 21/39/22 13/19/12
f 15/22/16 23/40/24 22/38/23 14/18/14
f 16/24/3 24/41/18 23/42/24 15/25/16
f 17/30/17 25/43/25 32/44/26 24/45/18
f 18/29/19 26/46/27 25/43/25 17/30/17
f 19/31/20 27/47/28 26/46/27 18/29/19
f 20/33/21 28/48/29 27/49/28 19/34/20
f 21/39/22 29/50/30 28/51/29 20/52/21
f 22/38/23 30/53/31 29/50/30 21/39/22
f 23/40/24 31/54/32 30/53/31 22/38/23
f 24/55/18 32/56/26 31/57/32 23/58/24
f 25/43/25 33/59/33 40/60/34 32/44/26
f 26/46/27 34/61/35 33/59/33 25/43/25
f 27/47/28 35/62/36 34/61/35 26/46/27
f 28/48/29 36/63/37 35/64/36 27/49/28
f 29/50/30 37/65/38 36/66/37 28/51/29
f 30/53/31 38/67/39 37/65/38 29/50/30
f 31/54/32 39/68/40 38/67/39 30/53/31
f 32/56/26 40/69/34 39/70/40 31/57/32
f 33/71/33 41/72/41 48/73/42 40/74/34
f 34/61/35 42/75/43 41/76/41 33/59/33
f 35/62/36 43/77/44 42/75/43 34/61/35
f 36/63/37 44/78/45 43/79/44 35/64/36
f 37/80/38 45/81/46 44/78/45 36/63/37
f 38/67/39 46/82/47 45/83/46 37/65/38
f 39/68/40 47/84/48 46/82/47 38/67/39
f 40/69/34 48/85/42 47/86/48 39/70/40
f 41/72/41 49/87/49 56/88/50 48/73/42
f 42/75/43 50/89/51 49/90/49 41/76/41
f 43/77/44 51/91/52 50/89/51 42/75/43
f 44/78/45 52/92/53 51/93/52 43/79/44
f 45/81/46 53/94/54 52/92/53 44/78/45
f 46/82/47 54/95/55 53/96/54 45/83/46
f 47/84/48 55/97/56 54/95/55 46/82/47
f 48/85/42 56/98/50 55/99/56 47/86/48
f 49/87/49 57/100/57 64/101/58 56/88/50
f 50/89/51 58/102/59 57/103/57 49/90/49
f 51/91/52 59/104/60 58/102/59 50/89/51
f 52/92/53 60/105/61 59/106/60 51/93/52
f 53/94/54 61/107/62 60/105/61 52/92/53
f 54/95/55 62/108/63 61/109/62 53/96/54
f 55/97/56 63/110/64 62/108/63 54/95/55
f 56/98/50 64/111/58 63/112/64 55/99/56
f 57/103/57 65/113/65 72/114/66 64/115/58
f 58/102/59 66/116/67 65/113/65 57/103/57
f 59/104/60 67/117/68 66/116/67 58/102/59
f 60/105/61 68/118/69 67/119/68 59/106/60
f 61/109/62 69/120/70 68/121/69 60/122/61
f 62/108/63 70/123/71 69/120/70 61/109/62
f 63/110/64 71/124/72 70/123/71 62/108/63
f 64/111/58 72/125/66 71/126/72 63/112/64
f 65/113/65 73/127/73 80/128/74 72/114/66
f 66/116/67 74/129/75 73/127/73 65/113/65
f 67/117/68 75/130/76 74/129/75 66/116/67
f 68/118/69 76/131/77 75/132/76 67/119/68
f 69/120/70 77/133/78 76/134/77 68/121/69
f 70/123/71 78/135/79 77/133/78 69/120/70
f 71/124/72 79/136/80 78/135/79 70/123/71
f 72/125/66 80/137/74 79/138/80 71/126/72
f 73/127/73 81/139/81 88/140/82 80/128/74
f 74/129/75 82/141/83 81/139/81 73/127/73
f 75/130/76 83/142/84 82/141/83 74/129/75
f 76/131/77 84/143/85 83/144/84 75/132/76
f 77/133/78 85/145/86 84/146/85 76/134/77
f 78/135/79 86/147/87 85/145/86 77/133/78
f 79/136/80 87/148/88 86/147/87 78/135/79
f 80/137/74 88/149/82 87/150/88 79/138/80
f 81/139/81 89/151/89 96/152/90 88/140/82
f 82/141/83 90/153/91 89/151/89 81/139/81
f 83/142/84 91/154/92 90/153/91 82/141/83
f 84/155/85 92/156/93 91/157/92 83/158/84
f 85/145/86 93/159/94 92/160/93 84/146/85
f 86/147/87 94/161/95 93/159/94 85/145/86
f 87/148/88 95/162/96 94/161/95 86/147/87
f 88/163/82 96/164/90 95/165/96 87/166/88
f 89/167/89 97/168/97 104/169/98 96/170/90
f 90/153/91 98/171/99 97/172/97 89/151/89
f 91/157/92 99/173/100 98/174/99 90/175/91
f 92/156/93 100/176/101 99/173/100 91/157/92
f 93/177/94 101/178/102 100/176/101 92/156/93
f 94/161/95 102/179/103 101/180/102 93/159/94
f 95/165/96 103/181/104 102/182/103 94/183/95
f 96/164/90 104/184/98 103/181/104 95/165/96
