# Blender v2.77 (sub 0) OBJ File: 'Weaponry.blend'
# www.blender.org
o FeedRingBody_Cylinder.006
v -0.195799 -0.595126 0.966800
v -0.115799 -0.595126 0.966800
v -0.195799 -0.610733 0.968337
v -0.115799 -0.610733 0.968337
v -0.195799 -0.625740 0.972889
v -0.115799 -0.625740 0.972889
v -0.195799 -0.639571 0.980282
v -0.115799 -0.639571 0.980282
v -0.195799 -0.651694 0.990231
v -0.115799 -0.651694 0.990231
v -0.195799 -0.661643 1.002354
v -0.115799 -0.661643 1.002354
v -0.195799 -0.669036 1.016185
v -0.115799 -0.669036 1.016185
v -0.195799 -0.673588 1.031193
v -0.115799 -0.673588 1.031193
v -0.195799 -0.675126 1.046800
v -0.115799 -0.675126 1.046800
v -0.195799 -0.673588 1.062407
v -0.115799 -0.673588 1.062407
v -0.195799 -0.669036 1.077414
v -0.115799 -0.669036 1.077414
v -0.195799 -0.661643 1.091245
v -0.115799 -0.661643 1.091245
v -0.195799 -0.651694 1.103368
v -0.115799 -0.651694 1.103368
v -0.195799 -0.639571 1.113317
v -0.115799 -0.639571 1.113317
v -0.195799 -0.625740 1.120710
v -0.115799 -0.625740 1.120710
v -0.195799 -0.610733 1.125263
v -0.115799 -0.610733 1.125263
v -0.195799 -0.595126 1.126800
v -0.115799 -0.595126 1.126800
v -0.195799 -0.579518 1.125263
v -0.115799 -0.579518 1.125263
v -0.195799 -0.564511 1.120710
v -0.115799 -0.564511 1.120710
v -0.195799 -0.550680 1.113317
v -0.115799 -0.550680 1.113317
v -0.195799 -0.538557 1.103368
v -0.115799 -0.538557 1.103368
v -0.195799 -0.528608 1.091245
v -0.115799 -0.528608 1.091245
v -0.195799 -0.521215 1.077414
v -0.115799 -0.521215 1.077414
v -0.195799 -0.516663 1.062407
v -0.115799 -0.516663 1.062407
v -0.195799 -0.515126 1.046800
v -0.115799 -0.515126 1.046800
v -0.195799 -0.516663 1.031192
v -0.115799 -0.516663 1.031192
v -0.195799 -0.521215 1.016185
v -0.115799 -0.521215 1.016185
v -0.195799 -0.528608 1.002354
v -0.115799 -0.528608 1.002354
v -0.195799 -0.538557 0.990231
v -0.115799 -0.538557 0.990231
v -0.195799 -0.550680 0.980282
v -0.115799 -0.550680 0.980282
v -0.195799 -0.564511 0.972889
v -0.115799 -0.564511 0.972889
v -0.195799 -0.579518 0.968337
v -0.115799 -0.579518 0.968337
vt 0.5920 0.0049
vt 0.5920 0.3295
vt 0.5527 0.3295
vt 0.5527 0.0049
vt 0.5141 0.3295
vt 0.5141 0.0049
vt 0.4778 0.3295
vt 0.4778 0.0049
vt 0.4451 0.3295
vt 0.4451 0.0049
vt 0.4173 0.3295
vt 0.4173 0.0049
vt 0.2605 0.6705
vt 0.2605 0.9951
vt 0.2278 0.9951
vt 0.2278 0.6705
vt 0.1915 0.9951
vt 0.1915 0.6705
vt 0.1529 0.9951
vt 0.1529 0.6705
vt 0.1136 0.9951
vt 0.1136 0.6705
vt 0.0750 0.9951
vt 0.0750 0.6705
vt 0.0387 0.9951
vt 0.0387 0.6705
vt 0.0060 0.9951
vt 0.0060 0.6705
vt 0.7117 0.6639
vt 0.7117 0.3392
vt 0.7444 0.3392
vt 0.7444 0.6639
vt 0.7807 0.3392
vt 0.7807 0.6639
vt 0.8193 0.3392
vt 0.8193 0.6639
vt 0.8586 0.3392
vt 0.8586 0.6639
vt 0.8971 0.3392
vt 0.8971 0.6639
vt 0.9335 0.3392
vt 0.9335 0.6639
vt 0.9662 0.3392
vt 0.9662 0.6639
vt 0.9940 0.3392
vt 0.9940 0.6639
vt 0.4173 0.6639
vt 0.4173 0.3392
vt 0.4500 0.3392
vt 0.4500 0.6639
vt 0.4863 0.3392
vt 0.4863 0.6639
vt 0.5249 0.3392
vt 0.5249 0.6639
vt 0.5642 0.3392
vt 0.5642 0.6639
vt 0.6028 0.3392
vt 0.6028 0.6639
vt 0.6391 0.3392
vt 0.6391 0.6639
vt 0.6718 0.3392
vt 0.6718 0.6639
vt 0.6996 0.3392
vt 0.6996 0.6639
vt 0.7274 0.0049
vt 0.7274 0.3295
vt 0.6996 0.3295
vt 0.6996 0.0049
vt 0.6669 0.3295
vt 0.6669 0.0049
vt 0.1860 0.3279
vt 0.1474 0.3217
vt 0.1111 0.3096
vt 0.0784 0.2919
vt 0.0506 0.2694
vt 0.0287 0.2429
vt 0.0137 0.2135
vt 0.0060 0.1823
vt 0.0060 0.1505
vt 0.0137 0.1193
vt 0.0287 0.0899
vt 0.0506 0.0634
vt 0.0784 0.0409
vt 0.1111 0.0233
vt 0.1474 0.0111
vt 0.1860 0.0049
vt 0.2253 0.0049
vt 0.2639 0.0111
vt 0.3002 0.0233
vt 0.3329 0.0409
vt 0.3607 0.0634
vt 0.3826 0.0899
vt 0.3976 0.1193
vt 0.4053 0.1505
vt 0.4053 0.1823
vt 0.3976 0.2135
vt 0.3826 0.2429
vt 0.3607 0.2694
vt 0.3329 0.2919
vt 0.3002 0.3096
vt 0.2639 0.3217
vt 0.2253 0.3279
vt 0.6306 0.3295
vt 0.6306 0.0049
vt 0.0060 0.5151
vt 0.0060 0.4833
vt 0.0137 0.4521
vt 0.0287 0.4227
vt 0.0506 0.3962
vt 0.0784 0.3737
vt 0.1111 0.3561
vt 0.1474 0.3439
vt 0.1860 0.3377
vt 0.2253 0.3377
vt 0.2639 0.3439
vt 0.3002 0.3561
vt 0.3329 0.3737
vt 0.3607 0.3962
vt 0.3826 0.4227
vt 0.3976 0.4521
vt 0.4053 0.4833
vt 0.4053 0.5151
vt 0.3976 0.5463
vt 0.3826 0.5757
vt 0.3607 0.6022
vt 0.3329 0.6247
vt 0.3002 0.6424
vt 0.2639 0.6545
vt 0.2253 0.6608
vt 0.1860 0.6608
vt 0.1474 0.6545
vt 0.1111 0.6424
vt 0.0784 0.6247
vt 0.0506 0.6022
vt 0.0287 0.5757
vt 0.0137 0.5463
vn -0.6857 0.0000 -0.7279
vn 0.6857 0.0000 -0.7279
vn 0.6857 -0.1420 -0.7139
vn -0.6857 -0.1420 -0.7139
vn 0.6857 -0.2785 -0.6725
vn -0.6857 -0.2785 -0.6725
vn 0.6857 -0.4044 -0.6052
vn -0.6857 -0.4044 -0.6052
vn 0.6857 -0.5147 -0.5147
vn -0.6857 -0.5147 -0.5147
vn 0.6857 -0.6052 -0.4044
vn -0.6857 -0.6052 -0.4044
vn 0.6857 -0.6725 -0.2785
vn -0.6857 -0.6725 -0.2785
vn 0.6857 -0.7139 -0.1420
vn -0.6857 -0.7139 -0.1420
vn 0.6857 -0.7279 0.0000
vn -0.6857 -0.7279 0.0000
vn 0.6857 -0.7139 0.1420
vn -0.6857 -0.7139 0.1420
vn 0.6857 -0.6725 0.2785
vn -0.6857 -0.6725 0.2785
vn 0.6857 -0.6052 0.4044
vn -0.6857 -0.6052 0.4044
vn 0.6857 -0.5147 0.5147
vn -0.6857 -0.5147 0.5147
vn 0.6857 -0.4044 0.6052
vn -0.6857 -0.4044 0.6052
vn 0.6857 -0.2785 0.6725
vn -0.6857 -0.2785 0.6725
vn 0.6857 -0.1420 0.7139
vn -0.6857 -0.1420 0.7139
vn 0.6857 0.0000 0.7279
vn -0.6857 0.0000 0.7279
vn 0.6857 0.1420 0.7139
vn -0.6857 0.1420 0.7139
vn 0.6857 0.2785 0.6725
vn -0.6857 0.2785 0.6725
vn 0.6857 0.4044 0.6052
vn -0.6857 0.4044 0.6052
vn 0.6857 0.5147 0.5147
vn -0.6857 0.5147 0.5147
vn 0.6857 0.6052 0.4044
vn -0.6857 0.6052 0.4044
vn 0.6857 0.6725 0.2785
vn -0.6857 0.6725 0.2785
vn 0.6857 0.7139 0.1420
vn -0.6857 0.7139 0.1420
vn 0.6857 0.7279 0.0000
vn -0.6857 0.7279 0.0000
vn 0.6857 0.7139 -0.1420
vn -0.6857 0.7139 -0.1420
vn 0.6857 0.6725 -0.2785
vn -0.6857 0.6725 -0.2785
vn 0.6857 0.6052 -0.4044
vn -0.6857 0.6052 -0.4044
vn 0.6857 0.5147 -0.5147
vn -0.6857 0.5147 -0.5147
vn 0.6857 0.4044 -0.6052
vn -0.6857 0.4044 -0.6052
vn 0.6857 0.2785 -0.6725
vn -0.6857 0.2785 -0.6725
vn 0.6857 0.1420 -0.7139
vn -0.6857 0.1420 -0.7139
s 1
f 1/1/1 2/2/2 4/3/3 3/4/4
f 3/4/4 4/3/3 6/5/5 5/6/6
f 5/6/6 6/5/5 8/7/7 7/8/8
f 7/8/8 8/7/7 10/9/9 9/10/10
f 9/10/10 10/9/9 12/11/11 11/12/12
f 11/13/12 12/14/11 14/15/13 13/16/14
f 13/16/14 14/15/13 16/17/15 15/18/16
f 15/18/16 16/17/15 18/19/17 17/20/18
f 17/20/18 18/19/17 20/21/19 19/22/20
f 19/22/20 20/21/19 22/23/21 21/24/22
f 21/24/22 22/23/21 24/25/23 23/26/24
f 23/26/24 24/25/23 26/27/25 25/28/26
f 25/29/26 26/30/25 28/31/27 27/32/28
f 27/32/28 28/31/27 30/33/29 29/34/30
f 29/34/30 30/33/29 32/35/31 31/36/32
f 31/36/32 32/35/31 34/37/33 33/38/34
f 33/38/34 34/37/33 36/39/35 35/40/36
f 35/40/36 36/39/35 38/41/37 37/42/38
f 37/42/38 38/41/37 40/43/39 39/44/40
f 39/44/40 40/43/39 42/45/41 41/46/42
f 41/47/42 42/48/41 44/49/43 43/50/44
f 43/50/44 44/49/43 46/51/45 45/52/46
f 45/52/46 46/51/45 48/53/47 47/54/48
f 47/54/48 48/53/47 50/55/49 49/56/50
f 49/56/50 50/55/49 52/57/51 51/58/52
f 51/58/52 52/57/51 54/59/53 53/60/54
f 53/60/54 54/59/53 56/61/55 55/62/56
f 55/62/56 56/61/55 58/63/57 57/64/58
f 57/65/58 58/66/57 60/67/59 59/68/60
f 59/68/60 60/67/59 62/69/61 61/70/62
f 4/71/3 2/72/2 64/73/63 62/74/61 60/75/59 58/76/57 56/77/55 54/78/53 52/79/51 50/80/49 48/81/47 46/82/45 44/83/43 42/84/41 40/85/39 38/86/37 36/87/35 34/88/33 32/89/31 30/90/29 28/91/27 26/92/25 24/93/23 22/94/21 20/95/19 18/96/17 16/97/15 14/98/13 12/99/11 10/100/9 8/101/7 6/102/5
f 61/70/62 62/69/61 64/103/63 63/104/64
f 63/104/64 64/103/63 2/2/2 1/1/1
f 1/105/1 3/106/4 5/107/6 7/108/8 9/109/10 11/110/12 13/111/14 15/112/16 17/113/18 19/114/20 21/115/22 23/116/24 25/117/26 27/118/28 29/119/30 31/120/32 33/121/34 35/122/36 37/123/38 39/124/40 41/125/42 43/126/44 45/127/46 47/128/48 49/129/50 51/130/52 53/131/54 55/132/56 57/133/58 59/134/60 61/135/62 63/136/64
