# Blender v2.77 (sub 0) OBJ File: 'Weaponry.blend'
# www.blender.org
o InteriorBarrel_Cylinder.003
v -0.013087 -0.119003 2.032223
v -0.013087 -0.119003 1.103215
v 0.006368 -0.117087 2.032223
v 0.006368 -0.117087 1.103215
v 0.025076 -0.111412 2.032223
v 0.025076 -0.111412 1.103215
v 0.042318 -0.102196 2.032223
v 0.042318 -0.102196 1.103215
v 0.057430 -0.089794 2.032223
v 0.057430 -0.089794 1.103215
v 0.069832 -0.074681 2.032223
v 0.069832 -0.074681 1.103215
v 0.079048 -0.057440 2.032223
v 0.079048 -0.057440 1.103215
v 0.084723 -0.038732 2.032223
v 0.084723 -0.038732 1.103215
v 0.086639 -0.019276 2.032223
v 0.086639 -0.019276 1.103215
v 0.084723 0.000180 2.032223
v 0.084723 0.000180 1.103215
v 0.079048 0.018888 2.032223
v 0.079048 0.018888 1.103215
v 0.069832 0.036129 2.032223
v 0.069832 0.036129 1.103215
v 0.057430 0.051242 2.032223
v 0.057430 0.051242 1.103215
v 0.042318 0.063644 2.032223
v 0.042318 0.063644 1.103215
v 0.025076 0.072860 2.032223
v 0.025076 0.072860 1.103215
v 0.006368 0.078535 2.032223
v 0.006368 0.078535 1.103215
v -0.013087 0.080451 2.032223
v -0.013087 0.080451 1.103215
v -0.032543 0.078535 2.032223
v -0.032543 0.078535 1.103215
v -0.051251 0.072860 2.032223
v -0.051251 0.072860 1.103215
v -0.068493 0.063644 2.032223
v -0.068493 0.063644 1.103215
v -0.083605 0.051242 2.032223
v -0.083605 0.051242 1.103215
v -0.096007 0.036129 2.032223
v -0.096007 0.036129 1.103215
v -0.105223 0.018888 2.032223
v -0.105223 0.018888 1.103215
v -0.110898 0.000180 2.032223
v -0.110898 0.000180 1.103215
v -0.112814 -0.019276 2.032223
v -0.112814 -0.019276 1.103215
v -0.110898 -0.038732 2.032223
v -0.110898 -0.038732 1.103215
v -0.105223 -0.057440 2.032223
v -0.105223 -0.057440 1.103215
v -0.096007 -0.074681 2.032223
v -0.096007 -0.074681 1.103215
v -0.083605 -0.089794 2.032223
v -0.083605 -0.089794 1.103215
v -0.068493 -0.102196 2.032223
v -0.068493 -0.102196 1.103215
v -0.051251 -0.111412 2.032223
v -0.051251 -0.111412 1.103215
v -0.032543 -0.117087 2.032223
v -0.032543 -0.117087 1.103215
vt 0.5977 0.9968
vt 0.5977 0.0032
vt 0.6206 0.0032
vt 0.6206 0.9968
vt 0.6449 0.0032
vt 0.6449 0.9968
vt 0.6696 0.0032
vt 0.6696 0.9968
vt 0.6939 0.0032
vt 0.6939 0.9968
vt 0.7167 0.0032
vt 0.7167 0.9968
vt 0.7373 0.0032
vt 0.7373 0.9968
vt 0.5520 0.0032
vt 0.5520 0.9968
vt 0.5315 0.9968
vt 0.5315 0.0032
vt 0.5086 0.9968
vt 0.5086 0.0032
vt 0.4843 0.9968
vt 0.4843 0.0032
vt 0.4596 0.9968
vt 0.4596 0.0032
vt 0.4353 0.9968
vt 0.4353 0.0032
vt 0.4124 0.9968
vt 0.4124 0.0032
vt 0.3918 0.9968
vt 0.3918 0.0032
vt 0.3743 0.9968
vt 0.3743 0.0032
vt 0.3668 0.0032
vt 0.3668 0.9968
vt 0.3462 0.9968
vt 0.3462 0.0032
vt 0.3233 0.9968
vt 0.3233 0.0032
vt 0.2990 0.9968
vt 0.2990 0.0032
vt 0.2743 0.9968
vt 0.2743 0.0032
vt 0.2500 0.9968
vt 0.2500 0.0032
vt 0.2271 0.9968
vt 0.2271 0.0032
vt 0.2066 0.9968
vt 0.2066 0.0032
vt 0.1891 0.9968
vt 0.1891 0.0032
vt 0.1815 0.0032
vt 0.1815 0.9968
vt 0.1640 0.9968
vt 0.1640 0.0032
vt 0.1434 0.9968
vt 0.1434 0.0032
vt 0.1205 0.9968
vt 0.1205 0.0032
vt 0.0963 0.9968
vt 0.0963 0.0032
vt 0.0715 0.9968
vt 0.0715 0.0032
vt 0.0472 0.9968
vt 0.0472 0.0032
vt 0.0244 0.9968
vt 0.0244 0.0032
vt 0.0038 0.9968
vt 0.0038 0.0032
vt 0.8582 0.2155
vt 0.8339 0.2114
vt 0.8110 0.2034
vt 0.7905 0.1918
vt 0.7730 0.1770
vt 0.7592 0.1596
vt 0.7497 0.1403
vt 0.7449 0.1198
vt 0.7449 0.0989
vt 0.7497 0.0784
vt 0.7592 0.0591
vt 0.7730 0.0417
vt 0.7905 0.0269
vt 0.8110 0.0153
vt 0.8339 0.0073
vt 0.8582 0.0032
vt 0.8829 0.0032
vt 0.9072 0.0073
vt 0.9301 0.0153
vt 0.9507 0.0269
vt 0.9682 0.0417
vt 0.9819 0.0591
vt 0.9914 0.0784
vt 0.9962 0.0989
vt 0.9962 0.1198
vt 0.9914 0.1403
vt 0.9819 0.1596
vt 0.9682 0.1770
vt 0.9507 0.1918
vt 0.9301 0.2034
vt 0.9072 0.2114
vt 0.8829 0.2155
vt 0.5596 0.9968
vt 0.5596 0.0032
vt 0.5771 0.0032
vt 0.5771 0.9968
vt 0.9962 0.3176
vt 0.9962 0.3385
vt 0.9914 0.3590
vt 0.9819 0.3783
vt 0.9682 0.3957
vt 0.9507 0.4105
vt 0.9301 0.4221
vt 0.9072 0.4301
vt 0.8829 0.4342
vt 0.8582 0.4342
vt 0.8339 0.4301
vt 0.8110 0.4221
vt 0.7905 0.4105
vt 0.7730 0.3957
vt 0.7592 0.3783
vt 0.7497 0.3590
vt 0.7449 0.3385
vt 0.7449 0.3176
vt 0.7497 0.2971
vt 0.7592 0.2778
vt 0.7730 0.2604
vt 0.7905 0.2456
vt 0.8110 0.2340
vt 0.8339 0.2260
vt 0.8582 0.2219
vt 0.8829 0.2219
vt 0.9072 0.2260
vt 0.9301 0.2340
vt 0.9507 0.2456
vt 0.9682 0.2604
vt 0.9819 0.2778
vt 0.9914 0.2971
vn 0.0000 -0.7279 0.6857
vn 0.0000 -0.7279 -0.6857
vn 0.1420 -0.7139 -0.6857
vn 0.1420 -0.7139 0.6857
vn 0.2785 -0.6725 -0.6857
vn 0.2785 -0.6725 0.6857
vn 0.4044 -0.6052 -0.6857
vn 0.4044 -0.6052 0.6857
vn 0.5147 -0.5147 -0.6857
vn 0.5147 -0.5147 0.6857
vn 0.6052 -0.4044 -0.6857
vn 0.6052 -0.4044 0.6857
vn 0.6725 -0.2785 -0.6857
vn 0.6725 -0.2785 0.6857
vn 0.7139 -0.1420 -0.6857
vn 0.7139 -0.1420 0.6857
vn 0.7279 0.0000 -0.6857
vn 0.7279 0.0000 0.6857
vn 0.7139 0.1420 -0.6857
vn 0.7139 0.1420 0.6857
vn 0.6725 0.2785 -0.6857
vn 0.6725 0.2785 0.6857
vn 0.6052 0.4044 -0.6857
vn 0.6052 0.4044 0.6857
vn 0.5147 0.5147 -0.6857
vn 0.5147 0.5147 0.6857
vn 0.4044 0.6052 -0.6857
vn 0.4044 0.6052 0.6857
vn 0.2785 0.6725 -0.6857
vn 0.2785 0.6725 0.6857
vn 0.1420 0.7139 -0.6857
vn 0.1420 0.7139 0.6857
vn 0.0000 0.7279 -0.6857
vn 0.0000 0.7279 0.6857
vn -0.1420 0.7139 -0.6857
vn -0.1420 0.7139 0.6857
vn -0.2785 0.6725 -0.6857
vn -0.2785 0.6725 0.6857
vn -0.4044 0.6052 -0.6857
vn -0.4044 0.6052 0.6857
vn -0.5147 0.5147 -0.6857
vn -0.5147 0.5147 0.6857
vn -0.6052 0.4044 -0.6857
vn -0.6052 0.4044 0.6857
vn -0.6725 0.2785 -0.6857
vn -0.6725 0.2785 0.6857
vn -0.7139 0.1420 -0.6857
vn -0.7139 0.1420 0.6857
vn -0.7279 0.0000 -0.6857
vn -0.7279 0.0000 0.6857
vn -0.7139 -0.1420 -0.6857
vn -0.7139 -0.1420 0.6857
vn -0.6725 -0.2785 -0.6857
vn -0.6725 -0.2785 0.6857
vn -0.6052 -0.4044 -0.6857
vn -0.6052 -0.4044 0.6857
vn -0.5147 -0.5147 -0.6857
vn -0.5147 -0.5147 0.6857
vn -0.4044 -0.6052 -0.6857
vn -0.4044 -0.6052 0.6857
vn -0.2785 -0.6725 -0.6857
vn -0.2785 -0.6725 0.6857
vn -0.1420 -0.7139 -0.6857
vn -0.1420 -0.7139 0.6857
s 1
f 1/1/1 2/2/2 4/3/3 3/4/4
f 3/4/4 4/3/3 6/5/5 5/6/6
f 5/6/6 6/5/5 8/7/7 7/8/8
f 7/8/8 8/7/7 10/9/9 9/10/10
f 9/10/10 10/9/9 12/11/11 11/12/12
f 11/12/12 12/11/11 14/13/13 13/14/14
f 13/15/14 14/16/13 16/17/15 15/18/16
f 15/18/16 16/17/15 18/19/17 17/20/18
f 17/20/18 18/19/17 20/21/19 19/22/20
f 19/22/20 20/21/19 22/23/21 21/24/22
f 21/24/22 22/23/21 24/25/23 23/26/24
f 23/26/24 24/25/23 26/27/25 25/28/26
f 25/28/26 26/27/25 28/29/27 27/30/28
f 27/30/28 28/29/27 30/31/29 29/32/30
f 29/33/30 30/34/29 32/35/31 31/36/32
f 31/36/32 32/35/31 34/37/33 33/38/34
f 33/38/34 34/37/33 36/39/35 35/40/36
f 35/40/36 36/39/35 38/41/37 37/42/38
f 37/42/38 38/41/37 40/43/39 39/44/40
f 39/44/40 40/43/39 42/45/41 41/46/42
f 41/46/42 42/45/41 44/47/43 43/48/44
f 43/48/44 44/47/43 46/49/45 45/50/46
f 45/51/46 46/52/45 48/53/47 47/54/48
f 47/54/48 48/53/47 50/55/49 49/56/50
f 49/56/50 50/55/49 52/57/51 51/58/52
f 51/58/52 52/57/51 54/59/53 53/60/54
f 53/60/54 54/59/53 56/61/55 55/62/56
f 55/62/56 56/61/55 58/63/57 57/64/58
f 57/64/58 58/63/57 60/65/59 59/66/60
f 59/66/60 60/65/59 62/67/61 61/68/62
f 4/69/3 2/70/2 64/71/63 62/72/61 60/73/59 58/74/57 56/75/55 54/76/53 52/77/51 50/78/49 48/79/47 46/80/45 44/81/43 42/82/41 40/83/39 38/84/37 36/85/35 34/86/33 32/87/31 30/88/29 28/89/27 26/90/25 24/91/23 22/92/21 20/93/19 18/94/17 16/95/15 14/96/13 12/97/11 10/98/9 8/99/7 6/100/5
f 61/101/62 62/102/61 64/103/63 63/104/64
f 63/104/64 64/103/63 2/2/2 1/1/1
f 1/105/1 3/106/4 5/107/6 7/108/8 9/109/10 11/110/12 13/111/14 15/112/16 17/113/18 19/114/20 21/115/22 23/116/24 25/117/26 27/118/28 29/119/30 31/120/32 33/121/34 35/122/36 37/123/38 39/124/40 41/125/42 43/126/44 45/127/46 47/128/48 49/129/50 51/130/52 53/131/54 55/132/56 57/133/58 59/134/60 61/135/62 63/136/64
