# Blender v2.77 (sub 0) OBJ File: 'Weaponry.blend'
# www.blender.org
o Cube.030_Cube.033
v -0.040781 0.358363 -0.770125
v -0.004467 0.655168 -0.770125
v -0.040781 0.358363 -0.851687
v -0.004467 0.655168 -0.851687
v 0.040781 0.358363 -0.770125
v 0.004467 0.655168 -0.770125
v 0.040781 0.358363 -0.851687
v 0.004467 0.655168 -0.851687
vt 0.0035 0.0032
vt 0.2383 0.0032
vt 0.2383 0.7834
vt 0.0035 0.7834
vt 0.5917 0.0032
vt 0.6174 0.0032
vt 0.7219 0.7776
vt 0.4871 0.7776
vt 0.4801 0.7834
vt 0.2453 0.7834
vt 0.2453 0.0032
vt 0.4801 0.0032
vt 0.8335 0.0032
vt 0.8592 0.0032
vt 0.9637 0.7776
vt 0.7290 0.7776
vt 0.7219 0.7840
vt 0.7219 0.9968
vt 0.4871 0.9968
vt 0.4871 0.7840
vt 0.9965 0.0032
vt 0.9965 0.2160
vt 0.9708 0.2160
vt 0.9708 0.0032
vn -0.9926 0.1214 0.0000
vn 0.0000 0.0000 -1.0000
vn 0.9926 0.1214 0.0000
vn 0.0000 0.0000 1.0000
vn 0.0000 -1.0000 0.0000
vn 0.0000 1.0000 0.0000
s off
f 2/1/1 4/2/1 3/3/1 1/4/1
f 4/5/2 8/6/2 7/7/2 3/8/2
f 8/9/3 6/10/3 5/11/3 7/12/3
f 6/13/4 2/14/4 1/15/4 5/16/4
f 1/17/5 3/18/5 7/19/5 5/20/5
f 6/21/6 8/22/6 4/23/6 2/24/6
